/* XPM */
static char * mail_xpm[] = {
"16 14 3 1",
" 	c None",
".	c #505050",
"+	c #939393",
"                ",
"                ",
"  ............  ",
"  .          .  ",
"  ..        ..  ",
"  . .      . .  ",
"  .  .    .  .  ",
"  .   .  .   .  ",
"  .  . .. .  .  ",
"  . .      . .  ",
"  .+        +.  ",
"  ............  ",
"                ",
"                "};
