/* XPM */
static char * mem_xpm[] = {
"16 14 2 1",
" 	c None",
".	c #505050",
"                ",
"                ",
"                ",
"   .  .  .  .   ",
"  ............  ",
"  .          .  ",
"  .          .  ",
"  .          .  ",
"  .          .  ",
"  ............  ",
"   .  .  .  .   ",
"                ",
"                ",
"                "};
