/* XPM */
static char * random_mpd_xpm[] = {
"16 14 2 1",
" 	c None",
".	c #505050",
"                ",
"          .     ",
"   .........    ",
"   .      .     ",
"   .            ",
"   .  .......   ",
"   .        .   ",
"   .        .   ",
"   .......  .   ",
"            .   ",
"     .      .   ",
"    .........   ",
"     .          ",
"                "};
