/* XPM */
static char * repeat_off_mpd_xpm[] = {
"16 14 2 1",
" 	c None",
".	c #BFBFBF",
"                ",
"                ",
"   ..........   ",
"   .        .   ",
"   .        .   ",
"   .       ...  ",
"            .   ",
"   .            ",
"  ...       .   ",
"   .        .   ",
"   .        .   ",
"   ..........   ",
"                ",
"                "};
