/* XPM */
static char * stop_mpd_xpm[] = {
"16 14 2 1",
" 	c #505050",
".	c None",
"................",
"................",
"................",
"....        ....",
"....        ....",
"....        ....",
"....        ....",
"....        ....",
"....        ....",
"....        ....",
"....        ....",
"................",
"................",
"................"};
