/* XPM */
static char * hide_pressed_xpm[] = {
"28 16 4 1",
" 	c None",
".	c #7F7F7F",
"+	c #CACACA",
"@	c #222222",
"...++++++++++++++++++++++...",
"  .++++++++++++++++++++++.  ",
"  .++++++@@++++++@@++++++.  ",
"  .+++++++@@++++@@+++++++.  ",
"  .++++++++@@++@@++++++++.  ",
"  .+++++++++@@@@+++++++++.  ",
"  .++++++++++@@++++++++++.  ",
"  .++++++++++++++++++++++.  ",
"  .+++++............+++++.  ",
"  .+++++@@@@@@@@@@@@+++++.  ",
"  .++++++++++++++++++++++.  ",
"  .++++++++++++++++++++++.  ",
"  ........................  ",
"                            ",
"                            ",
"                            "};
