/* XPM */
static char * maximize_toggled_inactive_xpm[] = {
"28 16 3 1",
" 	c None",
".	c #BFBFBF",
"+	c #D6D6D6",
"...++++++++++++++++++++++...",
"  .++++..............++++.  ",
"  .++++..............++++.  ",
"  .++++.++++++++++++.++++.  ",
"  .++++.++++++++++++.++++.  ",
"  .++++.++++++++++++.++++.  ",
"  .++++.++++++++++++.++++.  ",
"  .++++.++++++++++++.++++.  ",
"  .++++.++++++++++++.++++.  ",
"  .++++.++++++++++++.++++.  ",
"  .++++..............++++.  ",
"  .++++++++++++++++++++++.  ",
"  ........................  ",
"                            ",
"                            ",
"                            "};
