/* XPM */
static char * maximize_toggled_pressed_xpm[] = {
"28 16 5 1",
" 	c None",
".	c #7F7F7F",
"+	c #CACACA",
"@	c #222222",
"#	c #A4A4A4",
"...++++++++++++++++++++++...",
"  .++++++++++++++++++++++.  ",
"  .+++++@@@@@@@@@@@@+++++.  ",
"  .+++++@@@@@@@@@@@@+++++.  ",
"  .+++++@++++++++++@+++++.  ",
"  .+++++@+...++.+++@+++++.  ",
"  .+++++@++#.++.#++@+++++.  ",
"  .+++++@+++.++...+@+++++.  ",
"  .+++++@++++++++++@+++++.  ",
"  .+++++@@@@@@@@@@@@+++++.  ",
"  .++++++++++++++++++++++.  ",
"  .++++++++++++++++++++++.  ",
"  ........................  ",
"                            ",
"                            ",
"                            "};
