/* XPM */
static char * menu_active_xpm[] = {
"28 16 3 1",
" 	c None",
".	c #7F7F7F",
"+	c #D6D6D6",
"...++++++++++++++++++++++...",
"  .++++++++++++++++++++++.  ",
"  .++++++++++++++++++++++.  ",
"  .++++++++++++++++++++++.  ",
"  .++++++..++++++..++++++.  ",
"  .+++++++..++++..+++++++.  ",
"  .++++++++..++..++++++++.  ",
"  .+++++++++....+++++++++.  ",
"  .++++++++++..++++++++++.  ",
"  .++++++++++++++++++++++.  ",
"  .++++++++++++++++++++++.  ",
"  .++++++++++++++++++++++.  ",
"  ........................  ",
"                            ",
"                            ",
"                            "};
