/* XPM */
static char * stick_pressed_xpm[] = {
"28 16 4 1",
" 	c None",
".	c #7F7F7F",
"+	c #D6D6D6",
"@	c #222222",
"...++++++++++++++++++++++...",
"  .++++++++++++++++++++++.  ",
"  .++++++++.@@@@.++++++++.  ",
"  .+++++++.+@..@+.+++++++.  ",
"  .+++++++@@@..@@@+++++++.  ",
"  .+++++++@..@@..@+++++++.  ",
"  .+++++++@..@@..@+++++++.  ",
"  .+++++++@@@..@@@+++++++.  ",
"  .+++++++.+@..@+.+++++++.  ",
"  .++++++++.@@@@.++++++++.  ",
"  .++++++++++++++++++++++.  ",
"  .++++++++++++++++++++++.  ",
"  ........................  ",
"                            ",
"                            ",
"                            "};
