/* XPM */
static char * menu_pressed_xpm[] = {
"26 16 4 1",
" 	c None",
".	c #7F7F7F",
"+	c #CACACA",
"@	c #222222",
"...++++++++++++++++++++...",
"  .++++++++++++++++++++.  ",
"  .++++++++@+++++++++++.  ",
"  .++++++++@@++++++++++.  ",
"  .+++++++++@@+++++++++.  ",
"  .++++++++++@@++++++++.  ",
"  .++++++++++@@++++++++.  ",
"  .+++++++++@@+++++++++.  ",
"  .++++++++@@++++++++++.  ",
"  .++++++++@+++++++++++.  ",
"  .++++++++++++++++++++.  ",
"  .++++++++++++++++++++.  ",
"  ......................  ",
"                          ",
"                          ",
"                          "};
