/* XPM */
static char * menu_inactive_xpm[] = {
"26 16 3 1",
" 	c None",
".	c #BFBFBF",
"+	c #D6D6D6",
"...++++++++++++++++++++...",
"  .++++++++++++++++++++.  ",
"  .++++++++++++++++++++.  ",
"  .++++++++++++++++++++.  ",
"  .+++++..++++++..+++++.  ",
"  .++++++..++++..++++++.  ",
"  .+++++++..++..+++++++.  ",
"  .++++++++....++++++++.  ",
"  .+++++++++..+++++++++.  ",
"  .++++++++++++++++++++.  ",
"  .++++++++++++++++++++.  ",
"  .++++++++++++++++++++.  ",
"  ......................  ",
"                          ",
"                          ",
"                          "};
