/* XPM */
static char * shade_pressed_xpm[] = {
"26 16 4 1",
" 	c None",
".	c #7F7F7F",
"+	c #D6D6D6",
"@	c #222222",
"...++++++++++++++++++++...",
"  .++++++++++++++++++++.  ",
"  .++++@@@@@@@@@@@@++++.  ",
"  .++++............++++.  ",
"  .++++++++++++++++++++.  ",
"  .+++++++++@@+++++++++.  ",
"  .++++++++@@@@++++++++.  ",
"  .+++++++@@++@@+++++++.  ",
"  .++++++@@++++@@++++++.  ",
"  .+++++@@++++++@@+++++.  ",
"  .++++++++++++++++++++.  ",
"  .++++++++++++++++++++.  ",
"  ......................  ",
"                          ",
"                          ",
"                          "};
