/* XPM */
static char * top_right_inactive_xpm[] = {
"2 16 3 1",
" 	c None",
".	c #BFBFBF",
"+	c #D6D6D6",
"..",
"+.",
"+.",
"+.",
"+.",
"+.",
"+.",
"+.",
"+.",
"+.",
"+.",
"+.",
"+.",
"+.",
"+.",
"+."};
